# AST/ASF file generated using VICON BodyLanguage
# -----------------------------------------------
:version 1.10
:name VICON
:units
  mass 1.0
  length 0.45
  angle deg
:documentation
   .ast/.asf automatically generated from VICON data using
   VICON BodyBuilder and BodyLanguage model FoxedUp or BRILLIANT.MOD
:root
   order TX TY TZ RX RY RZ
   axis XYZ
   position 0 0 0  
   orientation 0 0 0 
:bonedata
  begin
     id 1 
     name lhipjoint
     direction 0.541323 -0.757556 0.364798 
     length 2.47576 
     axis 0 0 0  XYZ
  end
  begin
     id 2 
     name lfemur
     direction 0.34202 -0.939693 0  
     length 7.46493  
     axis 0 0 20  XYZ
    dof rx ry rz
    limits (-160.0 20.0)
           (-70.0 70.0)
           (-60.0 70.0)
  end
  begin
     id 3 
     name ltibia
     direction 0.34202 -0.939693 0   
     length 7.73805   
     axis 0 0 20   XYZ
    dof rx
    limits (-10.0 170.0)
  end
  begin
     id 4 
     name lfoot
     direction 0.107174 -0.294458 0.949636   
     length 2.25864   
     axis -90 7.62852e-016 20   XYZ
    dof rx rz
    limits (-45.0 90.0)
           (-70.0 20.0)
  end
  begin
     id 5 
     name ltoes
     direction 1.53606e-011 -4.21934e-011 1   
     length 1.12451   
     axis -90 7.62852e-016 20   XYZ
    dof rx
    limits (-90.0 20.0)
  end
  begin
     id 6 
     name rhipjoint
     direction -0.524745 -0.766967 0.36933   
     length 2.44538  
     axis 0 0 0  XYZ 
  end
  begin
     id 7 
     name rfemur
     direction -0.34202 -0.939693 0   
     length 7.61604   
     axis 0 0 -20   XYZ
    dof rx ry rz
    limits (-160.0 20.0)
           (-70.0 70.0)
           (-70.0 60.0)
  end
  begin
     id 8 
     name rtibia
     direction -0.34202 -0.939693 0   
     length 7.61056   
     axis 0 0 -20   XYZ
    dof rx
    limits (-10.0 170.0)
 end
 begin
     id 9 
     name rfoot
     direction -0.12616 -0.346623 0.929482   
     length 2.46372  
     axis -90 -7.62852e-016 -20   XYZ
    dof rx rz
    limits (-45.0 90.0)
           (-20.0 70.0)
  end
  begin
     id 10 
     name rtoes
     direction -1.53531e-011 -4.22004e-011 1   
     length 1.21611   
     axis -90 -7.62852e-016 -20   XYZ
    dof rx
    limits (-90.0 20.0)
  end
  begin
     id 11 
     name lowerback
     direction -0.000778023 0.997293 -0.0735223   
     length 2.06139   
     axis 0 0 0   XYZ
    dof rx ry rz
    limits (-20.0 45.0)
           (-30.0 30.0)
           (-30.0 30.0)
  end
  begin
     id 12 
     name upperback
     direction 0.0222598 0.999722 -0.0078355   
     length 2.06383   
     axis 0 0 0   XYZ
    dof rx ry rz
    limits (-20.0 45.0)
           (-30.0 30.0)
           (-30.0 30.0)
  end
  begin
     id 13 
     name thorax
     direction 0.0219654 0.999405 0.0265994   
     length 2.07163   
     axis 0 0 0   XYZ
    dof rx ry rz
    limits (-20.0 45.0)
           (-30.0 30.0)
           (-30.0 30.0)
  end
  begin
     id 14 
     name lowerneck
     direction 0.0213282 0.988147 0.15202   
     length 1.75969   
     axis 0 0 0   XYZ
    dof rx ry rz
    limits (-20.0 45.0)
           (-30.0 30.0)
           (-30.0 30.0)
  end
  begin
     id 15 
     name upperneck
     direction -0.0546456 0.982624 -0.177379   
     length 1.79244   
     axis 0 0 0   XYZ
    dof rx ry rz
    limits (-20.0 45.0)
           (-30.0 30.0)
           (-30.0 30.0)
  end
  begin
     id 16
     name head
     direction -0.0199987 0.996855 -0.076686  
     length 1.80555  
     axis 0 0 0   XYZ
    dof rx ry rz
    limits (-20.0 45.0)
           (-30.0 30.0)
           (-30.0 30.0)
  end
  begin
     id 17 
     name lclavicle
     direction 0.929565 0.363219 -0.063096  
     length 3.55722  
     axis 0 0 0   XYZ
    dof ry rz
    limits (-20.0 10.0)
           (0.0 20.0)
  end
  begin
     id 18 
     name lhumerus
     direction 1 -4.48993e-011 -2.36203e-027   
     length 4.92785   
     axis 180 -30 -90   XYZ
    dof rx ry rz
    limits (-60.0 90.0)
           (-90.0 90.0)
           (-90.0 90.0)
  end
  begin
     id 19
     name lradius
     direction 1 -4.48947e-011 2.02997e-027   
     length 3.44052   
     axis 180 -30 -90   XYZ
    dof rx
    limits (-10.0 170.0)
  end
  begin
     id 20
     name lwrist
     direction 1 -4.48962e-011 1.45991e-027   
     length 1.72026   
     axis 1.49639e-024 90 90   XYZ
    dof ry
    limits (-180.0 0.0)
 end
  begin
     id 21 
     name lhand
     direction 1 -4.48984e-011 2.91906e-027   
     length 0.654326   
     axis -1.863e-015 90 90   XYZ
    dof rx rz
    limits (-90.0 90.0)
           (-45.0 45.0)
  end
  begin
     id 22 
     name lfingers
     direction 1 -4.48961e-011 5.83968e-027   
     length 0.527534   
     axis -3.72598e-015 90 90   XYZ
    dof rx
    limits (0.0 90.0)
  end
  begin
     id 23
     name lthumb
     direction 0.707107 -6.34963e-011 0.707107   
     length 0.757437   
     axis -90 45 -6.68868e-015   XYZ
    dof rx rz
    limits (-45.0 45.0)
           (-45.0 45.0)
  end
  begin
     id 24 
     name rclavicle
     direction -0.902944 0.422599 -0.0781198   
     length 3.54432  
     axis 0 0 0   XYZ 
    dof ry rz
    limits (-10.0 20.0)
           (-20.0 0.0)
  end
  begin
     id 25 
     name rhumerus
     direction -1 -4.48953e-011 -4.75835e-028  
     length 5.09181   
     axis 180 30 90   XYZ
    dof rx ry rz
    limits (-90.0 60.0)
           (-90.0 90.0)
           (-90.0 90.0)
  end
  begin
     id 26 
     name rradius
     direction -1 -4.48986e-011 -3.25889e-027   
     length 3.49865   
     axis 180 30 90   XYZ
    dof rx
    limits (-10.0 170.0)
  end
  begin
     id 27 
     name rwrist
     direction -1 -4.48963e-011 1.45989e-027   
     length 1.74933   
     axis 1.49639e-024 -90 -90   XYZ
    dof ry
    limits (-180.0 0.0)
  end
  begin
     id 28
     name rhand
     direction -1 -4.49003e-011 2.91844e-027   
     length 0.66641   
     axis -1.863e-015 -90 -90   XYZ
    dof rx rz
    limits (-90.0 90.0)
           (-45.0 45.0)
  end
  begin
     id 29
     name rfingers
     direction -1 -4.48973e-011 5.83886e-027   
     length 0.537277   
     axis -3.72598e-015 -90 -90   XYZ
    dof rx
    limits (0.0 90.0)
  end
  begin
     id 30
     name rthumb
     direction -0.707107 -6.34976e-011 0.707107   
     length 0.771425   
     axis -90 -45 6.68868e-015   XYZ
    dof rx rz
    limits (-45.0 45.0)
           (-45.0 45.0)
  end
:hierarchy
  begin
    root lhipjoint rhipjoint lowerback
    lhipjoint lfemur
    lfemur ltibia
    ltibia lfoot
    lfoot ltoes
    rhipjoint rfemur
    rfemur rtibia
    rtibia rfoot
    rfoot rtoes
    lowerback upperback
    upperback thorax
    thorax lowerneck lclavicle rclavicle
    lowerneck upperneck
    upperneck head
    lclavicle lhumerus
    lhumerus lradius
    lradius lwrist
    lwrist lhand lthumb
    lhand lfingers
    rclavicle rhumerus
    rhumerus rradius
    rradius rwrist
    rwrist rhand rthumb
    rhand rfingers
  end

#!OML:ASF H:\LiuWeirdWalks\Patient Classification 1\Patient 1\Session 1\male.ASF
:FULLY-SPECIFIED
:DEGREES
51
root -0.109584 18.021 -31.3995 1.80887 5.59287 -2.82473
lowerback 3.08701 -4.33946 3.2908
upperback -1.94942 -5.54169 2.73186
thorax -3.78044 -2.80325 1.33716
lowerneck -23.6355 1.87809 7.12382
upperneck 24.8135 2.50173 -8.52466
head 12.3379 0.636384 -4.03035
rclavicle -2.57007e-014 7.95139e-016
rhumerus -32.4319 -7.84989 -78.3006
rradius 25.7254
rwrist -3.95416
rhand -17.5271 -2.83634
rfingers 7.12502
rthumb 8.72674 -32.6359
lclavicle -2.57007e-014 7.95139e-016
lhumerus -39.4276 16.3688 77.2413
lradius 26.3432
lwrist 5.20946
lhand -12.5846 1.43985
lfingers 7.12502
lthumb 13.4936 30.9827
rfemur -7.25642 -1.43254 23.2934
rtibia 26.1396
rfoot -12.4409 -22.1813
rtoes -2.23893
lfemur -8.13192 -3.76027 -15.3738
ltibia 25.1886
lfoot -10.3018 15.6253
ltoes -7.20589
52
root -0.101989 18.0211 -31.398 1.83642 5.5469 -2.85605
lowerback 3.10449 -4.27484 3.36665
upperback -1.90875 -5.45451 2.66371
thorax -3.76149 -2.76222 1.21916
lowerneck -23.7163 1.68239 6.81194
upperneck 24.8858 2.22953 -8.15846
head 12.3464 0.532793 -3.8842
rclavicle -4.24495e-015 -1.07344e-014
rhumerus -32.438 -8.20054 -78.2495
rradius 25.6656
rwrist -3.84894
rhand -17.5145 -2.82796
rfingers 7.12502
rthumb 8.73888 -32.627
lclavicle -4.24495e-015 -1.07344e-014
lhumerus -39.2476 16.0889 77.2812
lradius 26.3487
lwrist 5.28686
lhand -12.6141 1.40315
lfingers 7.12502
lthumb 13.4651 30.9479
rfemur -7.27128 -1.36986 23.3032
rtibia 26.1137
rfoot -12.4282 -22.1837
rtoes -2.25654
lfemur -8.16382 -3.74777 -15.3656
ltibia 25.2157
lfoot -10.3186 15.6645
ltoes -7.17443
53
root -0.0942512 18.0212 -31.3968 1.85724 5.50646 -2.90022
lowerback 3.12898 -4.14805 3.37619
upperback -1.8961 -5.28548 2.61809
thorax -3.76598 -2.67887 1.15694
lowerneck -23.6568 1.3536 6.39916
upperneck 24.924 1.79301 -7.72829
head 12.2993 0.357277 -3.72139
rclavicle -1.99165e-014 3.97569e-015
rhumerus -32.5703 -8.64272 -78.089
rradius 25.6539
rwrist -3.8025
rhand -17.5149 -2.8469
rfingers 7.12502
rthumb 8.73848 -32.646
lclavicle -1.99165e-014 3.97569e-015
lhumerus -39.0784 15.6576 77.4203
lradius 26.339
lwrist 5.364
lhand -12.6543 1.3036
lfingers 7.12502
lthumb 13.4265 30.8509
rfemur -7.27519 -1.3033 23.328
rtibia 26.076
rfoot -12.4089 -22.193
rtoes -2.27402
lfemur -8.19865 -3.74743 -15.3443
ltibia 25.2573
lfoot -10.3414 15.713
ltoes -7.1442
54
root -0.0863772 18.0211 -31.3962 1.87208 5.46456 -2.96282
lowerback 3.18455 -4.12446 3.37092
upperback -1.9098 -5.24906 2.67031
thorax -3.80589 -2.66015 1.2162
lowerneck -23.6686 1.37792 6.38679
upperneck 24.9767 1.83804 -7.73964
head 12.3265 0.374538 -3.71806
rclavicle -2.91437e-014 4.37326e-015
rhumerus -32.6324 -8.68769 -77.9582
rradius 25.6164
rwrist -3.8037
rhand -17.5336 -2.89548
rfingers 7.12502
rthumb 8.7204 -32.6953
lclavicle -2.91437e-014 4.37326e-015
lhumerus -39.0751 15.5972 77.501
lradius 26.3852
lwrist 5.42006
lhand -12.6973 1.18501
lfingers 7.12502
lthumb 13.385 30.735
rfemur -7.27335 -1.22894 23.3733
rtibia 26.0308
rfoot -12.3799 -22.2058
rtoes -2.2944
lfemur -8.23527 -3.75049 -15.3036
ltibia 25.3075
lfoot -10.3642 15.7677
ltoes -7.11821
55
root -0.0783002 18.0211 -31.396 1.88164 5.42374 -3.03026
lowerback 3.26247 -4.10301 3.36916
upperback -1.92864 -5.21379 2.72513
thorax -3.86394 -2.64211 1.27839
lowerneck -23.6846 1.40696 6.37048
upperneck 25.0383 1.89007 -7.7459
head 12.3587 0.395147 -3.71124
rclavicle -1.09267e-013 4.45278e-014
rhumerus -32.7058 -8.70879 -77.8314
rradius 25.5855
rwrist -3.82312
rhand -17.5731 -2.97491
rfingers 7.12502
rthumb 8.68231 -32.7764
lclavicle -1.09267e-013 4.45278e-014
lhumerus -39.084 15.5409 77.5801
lradius 26.4427
lwrist 5.47064
lhand -12.7552 1.03962
lfingers 7.12502
lthumb 13.3292 30.5933
rfemur -7.26578 -1.15628 23.4225
rtibia 25.9812
rfoot -12.3478 -22.2162
rtoes -2.314
lfemur -8.27099 -3.761 -15.2596
ltibia 25.3633
lfoot -10.3891 15.8293
ltoes -7.08846
56
root -0.0698851 18.021 -31.3961 1.88904 5.38864 -3.09639
lowerback 3.28563 -4.07269 3.35729
upperback -1.91682 -5.1714 2.77623
thorax -3.85869 -2.61998 1.33553
lowerneck -23.6675 1.41819 6.33635
upperneck 25.0652 1.91639 -7.7282
head 12.3677 0.406268 -3.69476
rclavicle 3.84276e-014 -2.54444e-014
rhumerus -32.7485 -8.78031 -77.6947
rradius 25.5424
rwrist -3.81299
rhand -17.6195 -3.05467
rfingers 7.12502
rthumb 8.63756 -32.858
lclavicle 3.84276e-014 -2.54444e-014
lhumerus -39.0333 15.4675 77.678
lradius 26.4913
lwrist 5.51461
lhand -12.825 0.945993
lfingers 7.12502
lthumb 13.2619 30.5041
rfemur -7.256 -1.09051 23.4682
rtibia 25.9305
rfoot -12.3103 -22.2226
rtoes -2.33815
lfemur -8.30791 -3.77816 -15.2188
ltibia 25.422
lfoot -10.4121 15.8923
ltoes -7.05903
